<svg width="25" height="25" viewBox="0 0 25 25" fill="none" xmlns="http://www.w3.org/2000/svg">
<path fill-rule="evenodd" clip-rule="evenodd" d="M2.94496 0.798556C4.10451 -0.360998 6.01796 -0.241871 7.02474 1.05255L9.8274 4.65598C10.3417 5.31725 10.5235 6.17826 10.3203 6.99098L9.46518 10.4114C9.37491 10.7725 9.48071 11.1545 9.74391 11.4177L13.5823 15.2561C13.8455 15.5193 14.2275 15.6251 14.5886 15.5348L18.009 14.6797C18.8217 14.4765 19.6828 14.6583 20.344 15.1726L23.9474 17.9753C25.2419 18.982 25.361 20.8955 24.2014 22.055L22.5859 23.6706C21.4301 24.8264 19.7014 25.3339 18.0902 24.7674C14.0899 23.361 10.335 21.0584 7.13826 17.8617C3.94156 14.665 1.63898 10.9101 0.232559 6.90976C-0.333879 5.29863 0.173641 3.56987 1.32945 2.41406L2.94496 0.798556Z" fill="#198B89"/>
</svg>
