<svg width="25" height="25" viewBox="0 0 25 25" fill="none" xmlns="http://www.w3.org/2000/svg">
<path d="M25 12.5C25 19.4036 19.4036 25 12.5 25C5.59644 25 0 19.4036 0 12.5C0 5.59644 5.59644 0 12.5 0C19.4036 0 25 5.59644 25 12.5ZM12.5 5.46875C12.5 5.03728 12.1502 4.6875 11.7188 4.6875C11.2873 4.6875 10.9375 5.03728 10.9375 5.46875V14.0625C10.9375 14.3429 11.0877 14.6017 11.3311 14.7408L16.7999 17.8658C17.1745 18.0799 17.6517 17.9497 17.8658 17.5751C18.0799 17.2005 17.9497 16.7233 17.5751 16.5092L12.5 13.6091V5.46875Z" fill="#198B89"/>
</svg>
